 <svg version="1.0" xmlns="http://www.w3.org/2000/svg"  width="300.000000pt" height="135.000000pt" viewBox="0 0 300.000000 135.000000"  preserveAspectRatio="xMidYMid meet">  <g transform="translate(0.000000,135.000000) scale(0.100000,-0.100000)" fill="#000000" stroke="none"> <path d="M400 1343 c0 -5 -27 -19 -61 -33 -33 -14 -68 -32 -77 -40 -9 -8 -35 -28 -57 -44 -47 -34 -132 -124 -141 -148 -3 -10 -10 -18 -15 -18 -5 0 -9 -6 -9 -12 0 -7 -9 -24 -20 -38 -17 -21 -20 -41 -20 -137 0 -62 4 -113 9 -113 4 0 6 31 3 70 -6 88 14 153 74 236 112 158 288 261 464 271 71 4 95 1 141 -16 104 -40 191 -143 205 -242 12 -88 -71 -248 -179 -344 -60 -54 -168 -109 -266 -133 -39 -10 -73 -20 -75 -23 -10 -9 101 -134 147 -166 65 -44 116 -58 212 -58 61 0 92 6 128 22 46 22 66 50 27 40 -11 -3 -20 -1 -20 4 0 5 5 9 11 9 6 0 19 10 29 23 17 20 20 20 32 6 43 -53 101 -62 162 -24 l39 24 30 -25 c33 -28 63 -30 109 -8 31 14 36 14 78 -5 48 -21 74 -15 92 22 4 10 13 25 18 35 6 9 13 25 16 35 9 26 32 20 32 -9 0 -31 30 -74 62 -91 19 -9 31 -9 59 3 20 8 39 22 44 30 7 12 14 10 41 -11 49 -38 99 -32 153 18 l23 20 26 -26 c14 -15 40 -29 58 -32 39 -7 115 -2 110 7 -3 4 6 12 18 19 22 12 22 11 8 -7 -8 -10 -21 -26 -30 -35 -72 -76 -146 -183 -170 -246 -24 -63 -20 -95 12 -130 20 -21 31 -23 123 -23 90 0 108 3 147 25 l44 24 18 -24 c18 -24 23 -25 131 -25 l112 0 59 38 c116 76 244 229 244 292 0 9 6 22 12 28 8 8 13 47 13 115 l0 102 82 40 c55 27 82 46 83 57 0 16 -4 16 -52 -3 -29 -11 -78 -35 -108 -54 -45 -28 -54 -38 -51 -57 2 -13 4 -62 5 -109 1 -79 -2 -90 -34 -155 -74 -147 -255 -284 -376 -284 -65 0 -119 37 -111 77 5 29 3 29 -36 -1 -106 -79 -218 -99 -276 -50 -17 14 -31 35 -31 46 0 38 68 162 129 234 55 66 170 174 250 234 l33 25 -56 70 c-31 39 -56 76 -56 83 0 22 -14 12 -42 -28 -15 -21 -50 -57 -79 -80 -42 -33 -59 -41 -81 -36 -27 5 -28 4 -28 -39 0 -24 4 -47 10 -50 29 -18 200 123 200 165 0 6 5 10 10 10 6 0 10 -3 10 -7 0 -5 14 -22 30 -40 17 -18 30 -34 30 -37 0 -11 -52 -56 -80 -71 -27 -14 -44 -5 -19 10 14 9 32 54 34 88 1 15 1 27 -1 27 -2 0 -15 -21 -28 -47 -45 -88 -124 -153 -188 -153 -28 0 -42 7 -62 31 -14 17 -26 43 -27 57 0 25 -1 26 -12 7 -30 -49 -85 -95 -115 -95 -43 0 -62 23 -62 77 l0 46 -26 -39 c-38 -57 -75 -94 -95 -94 -9 0 -28 12 -42 26 -22 22 -25 32 -20 67 7 54 46 157 84 225 34 60 22 68 -26 17 -52 -56 -112 -154 -150 -246 -32 -77 -37 -84 -61 -82 -35 3 -54 20 -54 50 0 25 0 25 -40 -11 -72 -64 -140 -41 -143 49 -1 19 -5 35 -9 35 -4 0 -8 -6 -8 -13 0 -25 -54 -96 -81 -107 -21 -9 -33 -8 -57 4 -36 19 -44 30 -51 73 l-6 32 -46 -57 c-39 -50 -49 -57 -78 -55 -52 2 -71 27 -71 92 0 70 20 147 59 226 50 102 95 135 141 105 13 -8 7 -25 -37 -112 -54 -106 -102 -242 -90 -254 14 -15 48 32 117 165 40 76 85 152 100 169 31 36 68 42 93 14 16 -17 15 -22 -13 -73 -57 -106 -109 -279 -83 -279 18 0 54 32 83 75 20 29 40 80 56 146 14 56 38 132 53 169 l28 68 -38 -5 c-35 -5 -40 -3 -49 21 -16 43 -14 45 52 48 l62 3 36 66 c87 164 139 214 215 207 52 -4 58 4 15 22 -48 20 -92 5 -144 -47 -25 -26 -46 -53 -46 -60 0 -7 -4 -13 -9 -13 -5 0 -24 -30 -43 -66 -36 -72 -50 -83 -105 -88 -46 -4 -68 -32 -58 -76 4 -20 14 -32 30 -36 16 -4 23 -13 23 -30 -1 -13 -5 -27 -9 -30 -5 -3 -6 -10 -3 -16 8 -12 -38 11 -47 24 -3 5 -21 11 -40 14 -28 4 -39 0 -65 -25 l-31 -29 -27 28 c-14 16 -40 32 -57 35 -26 6 -30 10 -24 28 34 109 37 144 16 212 -10 33 -61 125 -61 111 0 -6 -15 6 -33 25 -73 77 -79 79 -257 79 -88 0 -160 -3 -160 -7z m350 -640 c-1 -5 -7 -35 -15 -68 -19 -77 -19 -155 0 -181 8 -12 28 -27 45 -34 65 -27 16 -46 -91 -36 -83 9 -142 38 -203 101 -65 68 -69 75 -54 80 7 2 42 14 78 26 77 26 142 58 189 93 35 26 51 32 51 19z m359 -98 c-31 -44 -39 -20 -13 37 17 37 19 39 27 19 8 -16 4 -29 -14 -56z"/> <path d="M2043 1284 c-18 -7 -42 -22 -53 -31 -22 -19 -83 -109 -86 -127 -1 -6 -18 -37 -38 -70 -19 -32 -40 -75 -46 -95 -6 -20 -23 -60 -38 -88 l-26 -53 -26 25 c-33 31 -81 41 -120 25 -17 -7 -33 -11 -35 -8 -8 8 34 137 77 236 40 89 40 93 23 112 -22 24 -65 26 -105 5 -28 -15 -30 -14 -30 4 0 11 8 24 17 30 10 5 15 12 11 16 -15 15 -49 -9 -81 -58 -37 -55 -97 -171 -97 -185 0 -5 22 -9 49 -9 l49 -1 28 71 c35 91 60 117 113 117 l40 0 -41 -86 c-43 -93 -160 -424 -149 -424 3 0 13 11 21 24 24 38 96 113 128 132 29 16 31 16 62 -6 46 -33 51 -56 24 -110 -35 -70 -95 -212 -91 -216 8 -9 127 126 127 143 0 31 58 199 105 303 92 204 172 310 237 310 26 0 78 -49 78 -73 0 -61 -128 -257 -241 -371 -68 -68 -69 -70 -98 -175 -41 -148 -41 -151 -26 -151 16 0 89 83 109 125 8 16 30 64 49 105 64 136 150 189 230 143 l33 -20 28 28 c48 47 175 96 215 82 32 -12 51 -37 51 -67 0 -30 -2 -31 -43 -32 -93 -2 -207 -61 -207 -107 0 -14 24 -45 66 -84 l65 -62 62 40 c34 22 74 43 90 46 31 6 32 7 13 36 -28 43 -24 96 10 136 34 41 143 92 200 94 37 2 49 -2 65 -22 10 -13 19 -35 19 -50 0 -25 -3 -26 -55 -28 -79 -3 -189 -57 -193 -95 -4 -35 10 -54 78 -111 l54 -45 31 24 c56 42 143 76 186 72 27 -2 39 0 39 9 0 18 -43 27 -88 18 -42 -7 -144 -52 -153 -68 -7 -9 -70 28 -77 45 -2 5 -11 16 -20 24 -12 12 -13 20 -5 33 6 9 16 15 22 13 6 -1 11 2 11 7 0 10 44 29 77 34 12 2 26 6 29 10 4 4 19 7 34 7 66 0 80 72 25 127 -34 34 -38 35 -89 30 -49 -5 -133 -41 -194 -84 -13 -9 -22 -12 -20 -7 1 5 -6 23 -15 41 -23 44 -79 61 -140 44 -54 -16 -115 -45 -150 -73 -23 -19 -31 -20 -47 -10 -25 15 -112 16 -128 0 -22 -22 -13 15 13 54 14 20 25 42 25 47 0 6 5 11 10 11 6 0 25 30 42 68 49 101 42 170 -20 193 -44 17 -67 18 -99 3z m-547 -151 c-9 -42 -19 -62 -32 -67 -19 -7 -18 16 4 53 19 34 34 41 28 14z m1015 -308 c0 -5 3 -30 5 -55 4 -42 2 -46 -28 -64 -79 -47 -80 -47 -102 -32 -64 42 -88 84 -61 106 19 16 134 55 162 55 13 0 23 -4 24 -10z m-580 -68 c-6 -8 -9 -16 -7 -18 8 -8 -49 -113 -64 -118 -13 -4 -13 -2 -1 12 7 10 11 17 7 17 -9 0 25 82 42 103 8 9 19 17 25 17 5 0 5 -6 -2 -13z"/> <path d="M507 1234 c-157 -38 -342 -167 -428 -298 -33 -50 -39 -67 -39 -113 0 -34 4 -52 10 -48 6 3 10 21 10 38 0 37 32 106 74 160 28 36 89 86 170 139 23 14 46 30 51 35 18 15 109 52 150 62 91 20 224 3 262 -35 53 -52 -1 -206 -110 -314 -33 -33 -63 -60 -68 -60 -4 0 -14 -6 -21 -12 -48 -45 -222 -93 -239 -66 -11 17 -5 35 48 145 24 51 57 106 74 123 36 35 16 42 -26 8 -26 -20 -74 -111 -128 -245 l-25 -62 31 -6 c39 -8 159 16 219 44 134 61 244 182 282 312 26 86 22 124 -17 153 -37 28 -133 56 -187 55 -19 0 -61 -7 -93 -15z"/> <path d="M2061 1153 c-51 -69 -147 -241 -139 -249 8 -7 87 97 138 181 45 75 70 135 56 135 -3 0 -28 -30 -55 -67z"/> <path d="M350 1059 c-29 -11 -85 -83 -107 -137 -8 -20 -23 -55 -33 -77 -26 -55 -69 -154 -70 -160 -2 -13 -13 -44 -30 -80 -31 -69 -72 -217 -77 -280 -4 -51 -2 -64 17 -88 25 -31 62 -49 84 -41 8 3 16 20 19 37 14 94 88 332 103 332 5 0 23 -22 41 -50 18 -27 36 -54 40 -60 5 -5 19 -27 32 -47 12 -21 26 -38 30 -38 4 0 13 -11 20 -23 18 -34 127 -102 188 -117 45 -12 60 -11 114 4 34 9 75 26 90 37 15 10 31 19 36 19 13 0 83 76 83 90 0 7 -22 -6 -48 -29 -81 -67 -146 -95 -222 -94 -84 0 -128 21 -202 91 -60 57 -154 196 -178 265 -17 46 -26 47 -39 5 -5 -18 -25 -76 -44 -129 -40 -107 -70 -239 -61 -263 10 -27 -25 -19 -57 13 -20 20 -29 39 -29 61 0 123 230 683 299 728 13 9 45 17 70 18 57 2 61 3 36 14 -26 11 -74 11 -105 -1z"/> <path d="M1345 938 c-43 -118 -97 -299 -106 -354 -20 -116 -1 -132 68 -57 35 37 48 63 69 132 14 47 40 132 59 189 l33 102 -59 0 c-39 0 -61 -4 -64 -12z m59 -86 c-8 -26 -19 -54 -23 -62 -5 -9 -12 -35 -16 -58 -4 -23 -11 -42 -16 -42 -5 0 -9 -12 -9 -28 0 -29 -31 -95 -57 -121 -14 -14 -15 -10 -10 39 6 54 9 71 19 100 4 8 16 49 29 90 12 41 31 92 41 113 16 32 21 36 38 27 18 -9 18 -13 4 -58z"/> <path d="M2124 807 c-48 -44 -112 -152 -100 -165 11 -10 116 101 137 145 32 66 19 73 -37 20z"/> <path d="M2545 640 c-33 -16 -71 -38 -84 -49 -22 -17 -23 -21 -12 -49 15 -35 18 -106 6 -142 -6 -20 5 -13 55 33 34 32 87 76 116 99 59 44 59 45 7 105 l-28 32 -60 -29z m73 -59 c-6 -17 -101 -92 -111 -88 -18 6 -28 59 -14 75 6 8 32 24 57 36 43 21 46 21 58 4 8 -10 12 -22 10 -27z"/> <path d="M2248 423 c-53 -54 -109 -114 -126 -133 -51 -61 -112 -162 -112 -188 0 -21 3 -23 27 -17 40 10 143 86 199 148 66 72 114 164 121 232 3 32 2 55 -4 55 -5 0 -52 -44 -105 -97z m57 -15 c-3 -13 -11 -34 -18 -48 -12 -27 -86 -123 -99 -128 -5 -2 -6 -8 -2 -13 3 -5 -1 -9 -9 -9 -8 0 -22 -9 -31 -19 -21 -23 -76 -45 -76 -30 0 5 9 18 20 29 11 11 20 25 20 30 0 6 5 10 10 10 6 0 10 5 10 10 0 16 162 190 176 190 3 0 3 -10 -1 -22z"/> <path d="M2585 425 c-126 -126 -245 -289 -245 -336 0 -22 62 0 125 46 84 60 159 146 197 225 33 68 50 160 29 160 -6 0 -53 -43 -106 -95z m43 -55 c-12 -19 -27 -47 -35 -61 -24 -47 -144 -159 -170 -159 -8 0 -7 10 5 33 18 37 82 124 82 111 0 -4 10 5 23 22 36 47 79 89 88 87 5 -2 9 5 9 15 0 14 2 15 10 2 6 -10 3 -25 -12 -50z"/> </g> </svg> 